<svg width="40" height="40" viewBox="0 0 40 40" fill="none" xmlns="http://www.w3.org/2000/svg">
<path d="M0 6.26959C0 2.80699 2.82173 0 6.30252 0H33.6975C37.1783 0 40 2.80699 40 6.26959V33.7304C40 37.193 37.1783 40 33.6975 40H6.30252C2.82173 40 0 37.193 0 33.7304V6.26959Z" fill="#1A7BEB"/>
<path d="M9.61824 19.3088C9.44635 19.3088 9.28631 19.2675 9.13814 19.185C8.98996 19.0965 8.87438 18.9815 8.7914 18.84C8.70841 18.6926 8.66692 18.5305 8.66692 18.3536C8.66692 18.0883 8.7588 17.8642 8.94254 17.6814C9.12628 17.4986 9.35151 17.4072 9.61824 17.4072C9.88496 17.4072 10.1102 17.4986 10.2939 17.6814C10.4836 17.8642 10.5784 18.0883 10.5784 18.3536C10.5784 18.5305 10.534 18.6926 10.4451 18.84C10.3621 18.9815 10.2495 19.0965 10.1072 19.185C9.96498 19.2675 9.80198 19.3088 9.61824 19.3088Z" fill="white"/>
<path d="M11.5749 19.185V12.9939H16.287V14.4533H13.5486V15.3819H16.0203V16.6643H13.5486V17.7256H16.287V19.185H11.5749Z" fill="white"/>
<path d="M17.0882 19.185V12.9939H18.7508L20.9379 16.001V12.9939H22.8672V19.185H21.1602L18.973 16.1779V19.185H17.0882Z" fill="white"/>
<path d="M25.7279 19.185L23.4075 12.9939H25.5412L26.777 16.797L27.9862 12.9939H29.8977L27.7106 19.185H25.7279Z" fill="white"/>
<path d="M10.8629 27.5862V21.3952H13.4413C14.0636 21.3952 14.6 21.5072 15.0505 21.7313C15.501 21.9553 15.8477 22.2885 16.0907 22.7307C16.3396 23.167 16.4641 23.7095 16.4641 24.358V24.5349C16.4641 25.1953 16.3396 25.7525 16.0907 26.2065C15.8418 26.6605 15.4832 27.0054 15.0149 27.2413C14.5467 27.4712 13.9925 27.5862 13.3524 27.5862H10.8629ZM12.8367 25.9942H13.3079C13.5213 25.9942 13.7109 25.95 13.8769 25.8616C14.0488 25.7672 14.1851 25.6139 14.2859 25.4017C14.3866 25.1894 14.437 24.9005 14.437 24.5349V24.358C14.437 24.0161 14.3896 23.7448 14.2948 23.5444C14.2059 23.3439 14.0784 23.2024 13.9125 23.1198C13.7524 23.0314 13.5657 22.9872 13.3524 22.9872H12.8367V25.9942Z" fill="white"/>
<path d="M17.298 27.5862V21.3952H19.2807V27.5862H17.298Z" fill="white"/>
<path d="M20.3181 27.5862V21.3952H24.8523V22.8545H22.2918V24.0131H24.5856V25.4017H22.2918V27.5862H20.3181Z" fill="white"/>
<path d="M25.5362 27.5862V21.3952H30.0705V22.8545H27.5099V24.0131H29.8037V25.4017H27.5099V27.5862H25.5362Z" fill="white"/>
</svg>
